<svg xmlns="http://www.w3.org/2000/svg" width="74" height="74" viewBox="0 0 74 74">
  <g id="Group_19415" data-name="Group 19415" transform="translate(-385.151 -212.151)">
    <g id="Group_19414" data-name="Group 19414" transform="translate(385 212)">
      <circle id="Ellipse_750" data-name="Ellipse 750" cx="37" cy="37" r="37" transform="translate(0.151 0.151)" fill="#1a40b5"/>
      <g id="woman" transform="translate(5.066 3.626)">
        <path id="Path_8216" data-name="Path 8216" d="M69.858,71.761a32.085,32.085,0,1,0-53.551,0Z" transform="translate(-10.998 -19.115)" fill="#1d63ff"/>
        <path id="Path_8217" data-name="Path 8217" d="M220.394,3.469a7.6,7.6,0,0,0,2.579,5.669c5.634,5.634,10.436,21.059,10.488,21.226a3.891,3.891,0,0,0,2.162,2.14,4.592,4.592,0,0,0,3.422-.275,15.417,15.417,0,0,1,1.414-3.114c6.047-10.466-1.266-14.6-3.624-21.765A10.214,10.214,0,0,0,231.1,1.3a14.29,14.29,0,0,0-9.928-.739,7.037,7.037,0,0,0-.778,2.907Z" transform="translate(-192.969 0)" fill="#56415e"/>
        <path id="Path_8218" data-name="Path 8218" d="M153,51.527c6.718-8.837-2.082-8.886.5-16.434-4.154,1.889-5.465-1.649-5.465-1.649s-4.8-15.568-10.541-21.309c-3.351-3.351-2.742-6.477-1.655-8.5a14.183,14.183,0,0,0-2.3.825,10.214,10.214,0,0,0-5.736,6.048c-2.358,7.164-9.671,11.3-3.624,21.765s-5.653,9.432,1.812,19.252H153Z" transform="translate(-107.324 -3.16)" fill="#45304c"/>
        <path id="Path_8219" data-name="Path 8219" d="M160.467,156.785a2.174,2.174,0,0,0,1.824.7c-.027-.115-.055-.227-.081-.344a25.2,25.2,0,0,1-.246-4.633A5.615,5.615,0,0,0,160.467,156.785Z" transform="translate(-140.889 -132.536)" fill="#fc9460"/>
        <path id="Path_8220" data-name="Path 8220" d="M340.607,152.508a25.2,25.2,0,0,1-.246,4.633c-.026.116-.054.229-.081.344a2.174,2.174,0,0,0,1.824-.7A5.616,5.616,0,0,0,340.607,152.508Z" transform="translate(-297.158 -132.536)" fill="#ffaa7b"/>
        <path id="Path_8221" data-name="Path 8221" d="M206.141,281.979a1.1,1.1,0,0,1,.158,1.69c-.035.055-.282.236-.1.405,4.951,4.693,1.034,4.642,6.086-.088.231-.216-.18-.331-.313-.811a1.137,1.137,0,0,1,.447-1.2,10.089,10.089,0,0,0,3.965-5.153,3.781,3.781,0,0,1-1.759-2.844v-1.017c-1.316,1.176-3.572,2.675-5.43,2.72-1.858-.045-4.114-1.544-5.43-2.72v1.017a3.67,3.67,0,0,1-1.624,2.737A10.108,10.108,0,0,0,206.141,281.979Z" transform="translate(-177.107 -237.217)" fill="#ffaa7b"/>
        <path id="Path_8222" data-name="Path 8222" d="M209.269,275.68l-.077,0c-1.858-.045-4.114-1.543-5.43-2.72v1.017a3.67,3.67,0,0,1-1.624,2.737,10.11,10.11,0,0,0,3.947,5.222c.055-.039.11-.08.165-.125A8.71,8.71,0,0,0,209.269,275.68Z" transform="translate(-177.107 -237.217)" fill="#fc9460"/>
        <path id="Path_8223" data-name="Path 8223" d="M264.591,356.6l-1.385-1.587a19.834,19.834,0,0,0-2.481,2.737A9.158,9.158,0,0,0,264.591,356.6Z" transform="translate(-228.021 -308.523)" fill="#d3dcfb"/>
        <path id="Path_8224" data-name="Path 8224" d="M225.936,357.75a19.836,19.836,0,0,0-2.479-2.735l-1.337,1.532A8.281,8.281,0,0,0,225.936,357.75Z" transform="translate(-194.471 -308.523)" fill="#d3dcfb"/>
        <path id="Path_8225" data-name="Path 8225" d="M169.394,327.452a9.97,9.97,0,0,0-7.093-5.411,46.471,46.471,0,0,1-6.806-1.87,1.25,1.25,0,0,1-.036.67,48.462,48.462,0,0,1-3.152,7.126,1.451,1.451,0,0,1-2.361.283,11.7,11.7,0,0,1-6.207,1.831,10.627,10.627,0,0,1-6.083-1.887l-.035.04a1.452,1.452,0,0,1-2.378-.266c-.334-.622-.718-1.366-1.117-2.2-.008.06-.017.119-.023.181a16.822,16.822,0,0,0-3.53,1.564c-2.426,1.45-3.709,3.254-3.709,5.217v7.745a32.092,32.092,0,0,0,43.687-9.589A15.465,15.465,0,0,0,169.394,327.452Z" transform="translate(-111.691 -278.242)" fill="#395dcb"/>
        <path id="Path_8226" data-name="Path 8226" d="M61.6,332.731c0-4.622,7.227-6.63,7.227-6.63h0a45.184,45.184,0,0,1-2.2-5.26,1.248,1.248,0,0,1-.036-.67,46.471,46.471,0,0,1-6.806,1.87,9.971,9.971,0,0,0-7.093,5.411,15.46,15.46,0,0,0-1.157,3.436A32.26,32.26,0,0,0,61.6,340.6C61.6,338.382,61.6,335.308,61.6,332.731Z" transform="translate(-46.231 -278.241)" fill="#2044b2"/>
        <path id="Path_8227" data-name="Path 8227" d="M242.049,78.986c-1.338-1.574-3.149-2.595-3.149-5.686,0-7.839-7.659-5.037-7.659-5.037a1.33,1.33,0,0,1-.954,0,9.389,9.389,0,0,0-1.969-.434l.045.046s-6.227,18.44,5.847,28.329l.131.11a12.72,12.72,0,0,0,4.294-4.4,29.628,29.628,0,0,0,3.159-8.4,23.58,23.58,0,0,0,.256-4.533Z" transform="translate(-198.502 -58.901)" fill="#ffc7ab"/>
        <path id="Path_8228" data-name="Path 8228" d="M174.449,91.917a12.851,12.851,0,0,0,6.053,5.321,4.593,4.593,0,0,0,3.633,0,13.427,13.427,0,0,0,1.935-1.032c-12.072-9.89-5.846-28.328-5.846-28.328-2.247-.338-6.041-.092-6.041,5.425,0,3.087-1.807,4.109-3.145,5.68a22.161,22.161,0,0,0,.253,4.545A29.621,29.621,0,0,0,174.449,91.917Z" transform="translate(-150.057 -58.902)" fill="#ffaa7b"/>
        <path id="Path_8229" data-name="Path 8229" d="M203.89,364.672a10.418,10.418,0,0,0,6.788,2.387,11.611,11.611,0,0,0,7.05-2.387l-1.954-2.175a8.736,8.736,0,0,1-5.06,1.582,7.815,7.815,0,0,1-4.871-1.582Z" transform="translate(-178.629 -315.025)" fill="#2044b2"/>
        <path id="Path_8230" data-name="Path 8230" d="M188.961,329.107a9.676,9.676,0,0,1-1.968-1.725c-.733.134-4.313.981-4.749,4.73.4.835.788,1.586,1.126,2.215a1.649,1.649,0,0,0,2.7.3l3.148-3.606a1.285,1.285,0,0,0-.256-1.916Z" transform="translate(-159.818 -284.509)" fill="#deeeff"/>
        <path id="Path_8231" data-name="Path 8231" d="M173.11,299.394a10.23,10.23,0,0,1-2.122-3.637,1.145,1.145,0,0,0-1.725-.586,15.17,15.17,0,0,0-2.782,2.38,1.465,1.465,0,0,0-.314,1.458,45.2,45.2,0,0,0,2.169,5.209l.041-.012C168.706,299.939,173.11,299.394,173.11,299.394Z" transform="translate(-145.781 -256.348)" fill="#d3dcfb"/>
        <path id="Path_8232" data-name="Path 8232" d="M284.415,297.551a15.167,15.167,0,0,0-2.782-2.379,1.145,1.145,0,0,0-1.724.586,9.982,9.982,0,0,1-3.935,5.188,1.285,1.285,0,0,0-.256,1.915l3.148,3.606a1.649,1.649,0,0,0,2.7-.3,48.593,48.593,0,0,0,3.165-7.156A1.466,1.466,0,0,0,284.415,297.551Z" transform="translate(-240.774 -256.348)" fill="#deeeff"/>
        <path id="Path_8233" data-name="Path 8233" d="M22.745,102.32c-2.706-5.675-1.484-10.389.262-14.989a6.1,6.1,0,0,0-.909-5.665,32.116,32.116,0,0,0-9.122,35.379c1.023-1.727,3.4-3.241,6.015-4.145C22.484,111.693,25.452,107.995,22.745,102.32Z" transform="translate(-10.999 -70.971)" fill="#437dff"/>
        <path id="Path_8234" data-name="Path 8234" d="M404.319,102.32c2.706-5.675,1.484-10.389-.262-14.989a6.1,6.1,0,0,1,.909-5.665,32.116,32.116,0,0,1,9.122,35.379c-1.023-1.727-3.4-3.241-6.015-4.145C404.581,111.693,401.613,107.995,404.319,102.32Z" transform="translate(-351.896 -70.971)" fill="#437dff"/>
        <path id="Path_8235" data-name="Path 8235" d="M401.449,397.169a7.986,7.986,0,0,0-3.563-4.968A1.227,1.227,0,0,0,396,393.235v8.733A32.263,32.263,0,0,0,401.449,397.169Z" transform="translate(-345.581 -340.672)" fill="#2044b2"/>
      </g>
    </g>
  </g>
</svg>
