<svg xmlns="http://www.w3.org/2000/svg" width="22.993" height="23" viewBox="0 0 22.993 23">
  <g id="bot" transform="translate(23.007 23.014)">
    <path id="Icon_ionic-ios-close" data-name="Icon ionic-ios-close" d="M.569.459.9.131A.077.077,0,0,0,.788.022L.46.351.131.022A.077.077,0,1,0,.023.131L.351.459.023.788A.077.077,0,0,0,.131.9L.46.568.788.9A.077.077,0,1,0,.9.788Z" transform="translate(-11.051 -11.698) rotate(90)" fill="#1d63ff"/>
    <g id="Group_19408" data-name="Group 19408" transform="translate(-23.007 -23.014)">
      <path id="Path_1" data-name="Path 1" d="M77.619,4.606h-.575V3.35a1.724,1.724,0,1,0-1.15,0V4.606H69V3.35a1.724,1.724,0,1,0-1.15,0V4.606h-.575A2.877,2.877,0,0,0,64.4,7.48v9.772a2.877,2.877,0,0,0,2.874,2.874H69v2.3a.575.575,0,0,0,.879.487l4.459-2.786h3.284a2.877,2.877,0,0,0,2.874-2.874V7.48A2.877,2.877,0,0,0,77.619,4.606ZM69.572,8.055A1.726,1.726,0,0,1,71.3,9.779a.575.575,0,0,1-1.15,0,.575.575,0,1,0-1.15,0,.575.575,0,0,1-1.15,0A1.726,1.726,0,0,1,69.572,8.055Zm7.155,7.125a10.322,10.322,0,0,1-8.562,0,.575.575,0,1,1,.514-1.028,9.216,9.216,0,0,0,7.533,0,.575.575,0,1,1,.514,1.028Zm-.257-4.825a.575.575,0,0,1-.575-.575.575.575,0,1,0-1.15,0,.575.575,0,0,1-1.15,0,1.724,1.724,0,1,1,3.449,0,.575.575,0,0,1-.575.575Zm0,0" transform="translate(-60.949)" fill="#1d63ff"/>
      <path id="Path_2" data-name="Path 2" d="M384.973,170.8H384.4v5.748h.575a1.727,1.727,0,0,0,1.724-1.725v-2.3A1.727,1.727,0,0,0,384.973,170.8Zm0,0" transform="translate(-363.705 -161.596)" fill="#1d63ff"/>
      <path id="Path_3" data-name="Path 3" d="M.4,172.525v2.3a1.727,1.727,0,0,0,1.724,1.725H2.7V170.8H2.123A1.726,1.726,0,0,0,.4,172.525Zm0,0" transform="translate(-0.398 -161.596)" fill="#1d63ff"/>
    </g>
  </g>
</svg>
