<svg xmlns="http://www.w3.org/2000/svg" width="13.047" height="13.047" viewBox="0 0 13.047 13.047">
  <path id="copy" d="M11.518,13.047H4.587a1.531,1.531,0,0,1-1.529-1.529V4.587A1.531,1.531,0,0,1,4.587,3.058h6.931a1.531,1.531,0,0,1,1.529,1.529v6.931A1.531,1.531,0,0,1,11.518,13.047ZM4.587,4.077a.51.51,0,0,0-.51.51v6.931a.51.51,0,0,0,.51.51h6.931a.51.51,0,0,0,.51-.51V4.587a.51.51,0,0,0-.51-.51ZM2.039,8.97h-.51a.51.51,0,0,1-.51-.51V1.529a.51.51,0,0,1,.51-.51H8.46a.51.51,0,0,1,.51.51v.484H9.989V1.529A1.531,1.531,0,0,0,8.46,0H1.529A1.531,1.531,0,0,0,0,1.529V8.46A1.531,1.531,0,0,0,1.529,9.989h.51Zm0,0" fill="#1d63ff"/>
</svg>
