<svg xmlns="http://www.w3.org/2000/svg" width="16.979" height="16.971" viewBox="0 0 16.979 16.971">
  <g id="corporate-name-2" transform="translate(-115.895 -116.1)">
    <path id="Path_11490" data-name="Path 11490" d="M125.131,123.857h.015a.468.468,0,0,0,.452-.48l-.2-6.824a.467.467,0,0,0-.467-.452h-6.087a.467.467,0,0,0-.467.452l-.382,12.974h-1.372a.465.465,0,0,0-.463.42l-.261,2.611a.467.467,0,0,0,.463.514h6.767a.467.467,0,1,0,0-.934h-6.25l.167-1.678h1.4a.467.467,0,0,0,.467-.452l.382-12.974h5.18l.189,6.372A.467.467,0,0,0,125.131,123.857Z" fill="#193674"/>
    <path id="Path_11491" data-name="Path 11491" d="M535.221,539.534a.465.465,0,0,0-.463-.407h-.941l-.309-4.99a.465.465,0,0,0-.465-.437h-4.949a.465.465,0,0,0-.465.444l-.356,7.086a.469.469,0,0,0,.465.491h7.23a.462.462,0,0,0,.349-.159.468.468,0,0,0,.114-.367Zm-6.992,1.252.309-6.154H532.6l.309,4.99a.465.465,0,0,0,.465.437h.969l.092.727Z" transform="translate(-402.56 -408.649)" fill="#193674"/>
    <path id="Path_11492" data-name="Path 11492" d="M318.905,235.306h2.486a.4.4,0,1,0,0-.806h-2.486a.4.4,0,1,0,0,.806Z" transform="translate(-198.262 -115.862)" fill="#193674"/>
    <path id="Path_11493" data-name="Path 11493" d="M304.1,336.4a.4.4,0,0,0,.405.4h3.108a.4.4,0,1,0,0-.806h-3.108A.4.4,0,0,0,304.1,336.4Z" transform="translate(-184.171 -215.186)" fill="#193674"/>
    <path id="Path_11494" data-name="Path 11494" d="M290.8,434.6h-3.729a.467.467,0,1,0,0,.934H290.8a.467.467,0,1,0,0-.934Z" transform="translate(-167.046 -311.673)" fill="#193674"/>
    <path id="Path_11495" data-name="Path 11495" d="M659.467,612.1a.467.467,0,0,0-.467.467V616.3a.467.467,0,1,0,.934,0v-3.729A.468.468,0,0,0,659.467,612.1Z" transform="translate(-531.464 -485.369)" fill="#193674"/>
  </g>
</svg>
