<svg xmlns="http://www.w3.org/2000/svg" width="16.455" height="15.765" viewBox="0 0 16.455 15.765">
  <path id="Icon_feather-phone-call" data-name="Icon feather-phone-call" d="M5.994,1.5A2.157,2.157,0,0,1,8.13,3.355v.007a8.525,8.525,0,0,0,.464,1.863A2.162,2.162,0,0,1,8.109,7.5l0,0-.516.516a10.792,10.792,0,0,0,3.3,3.3L11.4,10.8l0,0a2.157,2.157,0,0,1,2.275-.485,8.521,8.521,0,0,0,1.861.463h.006A2.157,2.157,0,0,1,17.4,12.953V15.1a2.157,2.157,0,0,1-2.157,2.164c-.065,0-.13,0-.194-.009H15.04a15.021,15.021,0,0,1-6.515-2.317,14.835,14.835,0,0,1-4.53-4.53A15.018,15.018,0,0,1,1.678,3.862V3.851A2.157,2.157,0,0,1,3.823,1.5Zm.711,2.054a.722.722,0,0,0-.711-.616H3.823a.719.719,0,0,0-.715.779A13.574,13.574,0,0,0,5.2,9.628l0,.005A13.387,13.387,0,0,0,9.3,13.726l.006,0a13.576,13.576,0,0,0,5.883,2.095l.059,0a.719.719,0,0,0,.719-.722s0,0,0,0V12.945q0-.009,0-.018a.719.719,0,0,0-.616-.729,9.965,9.965,0,0,1-2.174-.542.719.719,0,0,0-.759.16l-.911.911a.719.719,0,0,1-.864.117A12.227,12.227,0,0,1,6.06,8.261.719.719,0,0,1,6.176,7.4l.911-.911a.721.721,0,0,0,.161-.757A9.969,9.969,0,0,1,6.706,3.554Zm9.459-.267a1.086,1.086,0,0,1,.852.583,5.644,5.644,0,0,1,.43.807,8.628,8.628,0,0,1,.673,2.451.719.719,0,0,1-1.356.4,26.353,26.353,0,0,1-1.1-2.414C15.4,4.435,15.306,4,15.522,3.646A.75.75,0,0,1,16.164,3.287ZM13.853,4.97c.491,0,.751.444.956.859a5.159,5.159,0,0,1,.425,1.249.719.719,0,0,1-1.336.483c-.268-.488-.469-.887-.6-1.186a1.127,1.127,0,0,1-.077-1.046A.735.735,0,0,1,13.853,4.97Z" transform="translate(-1.668 -1.5)" fill="#193674"/>
</svg>
