<svg xmlns="http://www.w3.org/2000/svg" width="15.134" height="14.138" viewBox="0 0 15.134 14.138">
  <g id="XMLID_1_" transform="translate(-8.087 -8.14)">
    <path id="XMLID_4_" d="M181.2,152.68a.972.972,0,0,0,.956.956h5.658l2.827,2.827v-2.827h.956a.972.972,0,0,0,.956-.956v-7.524a.972.972,0,0,0-.956-.956h-9.441a.972.972,0,0,0-.956.956Z" transform="translate(-169.331 -134.184)" fill="#193674"/>
    <path id="XMLID_5_" d="M117.747,115.585a.972.972,0,0,1-.956.956h-5.653l-2.827,2.827v-2.827h-.956a.972.972,0,0,1-.956-.956v-7.529a.972.972,0,0,1,.956-.956h9.4a.972.972,0,0,1,.956.956v7.529Z" transform="translate(-98.313 -98.96)" fill="#234284"/>
    <path id="XMLID_6_" d="M118.255,107.54a.969.969,0,0,0-.8-.44h-9.4a.972.972,0,0,0-.956.956v7.529a.972.972,0,0,0,.956.956h.956v.278Z" transform="translate(-98.978 -98.96)" fill="#234284"/>
    <circle id="XMLID_7_" cx="0.956" cy="0.956" r="0.956" transform="translate(9.998 11.887)" fill="#fff"/>
    <circle id="XMLID_8_" cx="0.956" cy="0.956" r="0.956" transform="translate(12.825 11.887)" fill="#fff"/>
    <circle id="XMLID_9_" cx="0.956" cy="0.956" r="0.956" transform="translate(15.651 11.887)" fill="#fff"/>
  </g>
</svg>
