<svg id="user" xmlns="http://www.w3.org/2000/svg" width="13.353" height="16.005" viewBox="0 0 13.353 16.005">
  <path id="Path_8238" data-name="Path 8238" d="M90.886,7.709A3.73,3.73,0,0,0,93.612,6.58a3.73,3.73,0,0,0,1.129-2.725,3.73,3.73,0,0,0-1.129-2.725,3.854,3.854,0,0,0-5.451,0,3.73,3.73,0,0,0-1.129,2.725A3.73,3.73,0,0,0,88.161,6.58,3.731,3.731,0,0,0,90.886,7.709Zm0,0" transform="translate(-84.311)" fill="#193674"/>
  <path id="Path_8239" data-name="Path 8239" d="M13.32,251.892a9.522,9.522,0,0,0-.13-1.011,7.969,7.969,0,0,0-.249-1.017,5.022,5.022,0,0,0-.418-.948,3.578,3.578,0,0,0-.63-.821,2.778,2.778,0,0,0-.905-.569,3.129,3.129,0,0,0-1.156-.209,1.173,1.173,0,0,0-.627.266c-.188.122-.407.264-.653.421a3.739,3.739,0,0,1-.844.372,3.279,3.279,0,0,1-2.066,0A3.731,3.731,0,0,1,4.8,248c-.243-.155-.463-.3-.653-.421a1.172,1.172,0,0,0-.626-.266,3.125,3.125,0,0,0-1.156.209,2.776,2.776,0,0,0-.906.569,3.579,3.579,0,0,0-.63.821,5.033,5.033,0,0,0-.418.948,7.988,7.988,0,0,0-.249,1.017,9.489,9.489,0,0,0-.13,1.012c-.021.306-.032.624-.032.945a2.658,2.658,0,0,0,.789,2.011,2.841,2.841,0,0,0,2.034.742h7.706a2.841,2.841,0,0,0,2.034-.742,2.656,2.656,0,0,0,.789-2.011C13.352,252.515,13.342,252.2,13.32,251.892Zm0,0" transform="translate(0 -239.586)" fill="#193674"/>
</svg>
