<svg xmlns="http://www.w3.org/2000/svg" width="19.302" height="14.781" viewBox="0 0 19.302 14.781">
  <path id="Icon_ionic-ios-checkmark" data-name="Icon ionic-ios-checkmark" d="M29.635,13.936l-1.578-1.622a.339.339,0,0,0-.251-.108h0a.326.326,0,0,0-.251.108L16.619,23.33l-3.98-3.98a.347.347,0,0,0-.5,0l-1.6,1.6a.357.357,0,0,0,0,.511l5.02,5.02a1.587,1.587,0,0,0,1.049.511,1.663,1.663,0,0,0,1.04-.493h.009L29.644,14.447A.383.383,0,0,0,29.635,13.936Z" transform="translate(-10.434 -12.206)" fill="#ffffff"/>
</svg>
