<svg xmlns="http://www.w3.org/2000/svg" width="19.6" height="20" viewBox="0 0 19.6 20">
  <g id="Google__G__Logo" transform="translate(1184.577 765.171)">
    <path id="Path_160" data-name="Path 160" d="M-1089.33-687.239v3.873h5.382a4.611,4.611,0,0,1-2.009,3.009l3.245,2.518a9.77,9.77,0,0,0,2.982-7.354,11.491,11.491,0,0,0-.182-2.045Z" transform="translate(-85.247 -69.75)" fill="#4285f4"/>
    <path id="Path_161" data-name="Path 161" d="M-1171.038-651.791l-.732.56-2.591,2.018h0a10,10,0,0,0,8.927,5.518,9.545,9.545,0,0,0,6.618-2.418l-3.245-2.518a5.957,5.957,0,0,1-3.373.964,5.97,5.97,0,0,1-5.6-4.118Z" transform="translate(-9.144 -101.477)" fill="#34a853"/>
    <path id="Path_162" data-name="Path 162" d="M-1183.5-712.61a9.876,9.876,0,0,0-1.073,4.482,9.875,9.875,0,0,0,1.073,4.482c0,.009,3.327-2.582,3.327-2.582a5.994,5.994,0,0,1-.318-1.9,5.994,5.994,0,0,1,.318-1.9Z" transform="translate(0 -47.043)" fill="#fbbc05"/>
    <path id="Path_163" data-name="Path 163" d="M-1165.435-761.189a5.456,5.456,0,0,1,3.827,1.491l2.864-2.864a9.594,9.594,0,0,0-6.691-2.609,9.982,9.982,0,0,0-8.927,5.518l3.327,2.582A5.97,5.97,0,0,1-1165.435-761.189Z" transform="translate(-9.143)" fill="#ea4335"/>
  </g>
</svg>
