<svg xmlns="http://www.w3.org/2000/svg" width="16.229" height="22.208" viewBox="0 0 16.229 22.208">
  <g id="g20" transform="translate(0 -0.087)">
    <path id="Subtraction_2" data-name="Subtraction 2" d="M21984.283,281.5h-14.34a.945.945,0,0,1-.943-.944V260.236a.945.945,0,0,1,.943-.943h8.232l7.053,7.051v14.213A.945.945,0,0,1,21984.283,281.5Zm-11.2-6.02a1.766,1.766,0,0,0-1.248.48,1.853,1.853,0,0,0,0,2.549,1.766,1.766,0,0,0,1.248.48,1.744,1.744,0,0,0,1.246-.48,1.853,1.853,0,0,0,0-2.549A1.744,1.744,0,0,0,21973.084,275.481Zm4.783.049h0v3.4h.475v-1.457h.48a1.235,1.235,0,0,0,.822-.243.9.9,0,0,0,.33-.728.915.915,0,0,0-.33-.728,1.235,1.235,0,0,0-.822-.243h-.955Zm-2.814,0h0v.4h.967v3h.475v-3h.959v-.4h-2.4Zm-1.969,3.024a1.217,1.217,0,0,1-.9-.364,1.472,1.472,0,0,1,0-1.937,1.233,1.233,0,0,1,.9-.359,1.248,1.248,0,0,1,.9.359,1.492,1.492,0,0,1,0,1.942A1.235,1.235,0,0,1,21973.084,278.554Zm5.7-1.473h-.441v-1.159h.441a.82.82,0,0,1,.49.132.506.506,0,0,1,.211.447.532.532,0,0,1-.211.452A.813.813,0,0,1,21978.783,277.081Z" transform="translate(-21969 -259.206)" fill="#1d63ff"/>
    <g id="g28" transform="translate(9.176 0.088)">
      <g id="g30">
        <path id="path32" d="M30.279-50.625l7.05,7.05H31.221a.942.942,0,0,1-.942-.942Z" transform="translate(-30.279 50.625)" fill="#083caf" fill-rule="evenodd"/>
      </g>
    </g>
  </g>
</svg>
