<svg xmlns="http://www.w3.org/2000/svg" width="17.829" height="14.526" viewBox="0 0 17.829 14.526">
  <g id="Icon_feather-mail" data-name="Icon feather-mail" transform="translate(-2.4 -5.4)">
    <path id="Path_11235" data-name="Path 11235" d="M4.71,5.4H17.918a2.313,2.313,0,0,1,2.31,2.31v9.906a2.313,2.313,0,0,1-2.31,2.31H4.71a2.313,2.313,0,0,1-2.31-2.31V7.71A2.313,2.313,0,0,1,4.71,5.4ZM17.918,18.608a.993.993,0,0,0,.992-.992V7.71a.993.993,0,0,0-.992-.992H4.71a.993.993,0,0,0-.992.992v9.906a.993.993,0,0,0,.992.992Z" transform="translate(0)" fill="#193674"/>
    <path id="Path_11236" data-name="Path 11236" d="M11.314,15.5a.659.659,0,0,1-.378-.119L2.681,9.6a.659.659,0,1,1,.756-1.08l7.877,5.514,7.877-5.514a.659.659,0,1,1,.756,1.08l-8.255,5.778A.659.659,0,0,1,11.314,15.5Z" transform="translate(0 -1.349)" fill="#193674"/>
  </g>
</svg>
