<svg xmlns="http://www.w3.org/2000/svg" width="14.526" height="14.526" viewBox="0 0 14.526 14.526">
  <path id="industry-solid" d="M169.9,160v3.611l-1.981,1.176v-2l-.99.619-2.311,1.383v-2l-.99.619-3.3,1.981-.33.186v8.956h14.526V160Zm1.321,1.321h1.981v11.885H161.321v-6.913l1.981-1.176v2l.99-.619,2.311-1.383v2l.99-.619,3.3-1.981.33-.186Zm-8.584,6.6v1.321h1.321v-1.321Zm2.641,0v1.321H166.6v-1.321Zm2.641,0v1.321h1.321v-1.321Zm2.641,0v1.321h1.321v-1.321Zm-7.923,2.641v1.321h1.321v-1.321Zm2.641,0v1.321H166.6v-1.321Zm2.641,0v1.321h1.321v-1.321Zm2.641,0v1.321h1.321v-1.321Z" transform="translate(-160 -160)" fill="#193674"/>
</svg>
