<svg xmlns="http://www.w3.org/2000/svg" width="15.765" height="15.765" viewBox="0 0 15.765 15.765">
  <path id="industry-10" d="M113.776,103.041a.789.789,0,0,0-.789.789v1.647h-6.3V99.889a.789.789,0,0,0-.789-.789h-6.3a.789.789,0,0,0-.789.789v14.187a.789.789,0,0,0,.789.789h14.187a.789.789,0,0,0,.789-.789V103.83A.788.788,0,0,0,113.776,103.041Zm-8.669,10.247h-4.728V100.678h4.728Zm7.882,0h-6.306v-6.236h6.306v6.236Zm.787-14.189a.789.789,0,0,0-.789.789v.789a.789.789,0,0,0,1.578,0v-.789A.789.789,0,0,0,113.776,99.1Z" transform="translate(-98.8 -99.1)" fill="#193674"/>
</svg>
