<svg xmlns="http://www.w3.org/2000/svg" xmlns:xlink="http://www.w3.org/1999/xlink" width="157.891" height="185.136" viewBox="0 0 157.891 185.136">
  <defs>
    <clipPath id="clip-path">
      <rect id="Rectangle_1859" data-name="Rectangle 1859" width="157.891" height="185.136" fill="none"/>
    </clipPath>
    <clipPath id="clip-path-2">
      <path id="Path_8245" data-name="Path 8245" d="M98.065,70.954a3.818,3.818,0,0,0-4.048,3.506V178.6a3.8,3.8,0,0,0,4.041,3.5H155.7a3.812,3.812,0,0,0,4.041-3.5V74.454a3.8,3.8,0,0,0-4.041-3.5Z" transform="translate(-94.017 -70.954)" fill="none"/>
    </clipPath>
    <clipPath id="clip-path-4">
      <path id="Path_8258" data-name="Path 8258" d="M24.686,235.079c-1.849,2.2-5.538,14.465-5.538,14.465l5.747,2.068,1.151-2.337s4.988,11.347-2.407,21.252c-6.862,9.192,11.863,7.492,14.6,7.2,2.734.293,21.458,1.992,14.6-7.2-7.394-9.9-2.407-21.252-2.407-21.252l1.151,2.337,5.406-2.093s-3.588-12.486-5.2-14.44c-1.79-2.174-10.58-2.523-10.58-2.523a3.637,3.637,0,0,1-3.116,2.326,3.307,3.307,0,0,1-2.941-2.349s-8.835.609-10.464,2.546" transform="translate(-19.148 -232.533)" fill="none"/>
    </clipPath>
    <clipPath id="clip-path-6">
      <path id="Path_8273" data-name="Path 8273" d="M262.652,76.732l-12.576,4.433,0,.336c.006.772.28,18.93,12.479,24.071l.1.065h.241l.087-.036c12.258-5.078,12.537-23.326,12.542-24.1l0-.337-12.722-4.485Z" transform="translate(-250.076 -76.681)" fill="none"/>
    </clipPath>
    <clipPath id="clip-path-8">
      <rect id="Rectangle_1882" data-name="Rectangle 1882" width="12.214" height="27.958" fill="none"/>
    </clipPath>
    <clipPath id="clip-path-9">
      <rect id="Rectangle_1886" data-name="Rectangle 1886" width="39.588" height="24.386" transform="translate(0 7.007) rotate(-10.195)" fill="none"/>
    </clipPath>
    <clipPath id="clip-path-11">
      <rect id="Rectangle_1887" data-name="Rectangle 1887" width="39.312" height="19.965" fill="none"/>
    </clipPath>
    <clipPath id="clip-path-12">
      <path id="Path_8278" data-name="Path 8278" d="M70.044,0,31.081,7.007,53.47,20.12Z" transform="translate(-31.081)" fill="none"/>
    </clipPath>
  </defs>
  <g id="Group_19534" data-name="Group 19534" transform="translate(0 0)">
    <g id="Group_19535" data-name="Group 19535">
      <g id="Group_19506" data-name="Group 19506">
        <g id="Group_19505" data-name="Group 19505" clip-path="url(#clip-path)">
          <path id="Path_8240" data-name="Path 8240" d="M123.483,115.334c-8.02,13.515-23.618,16.5-24.184,61.741a91.521,91.521,0,0,1-.844,11.809c-1.484,10.4-4.83,16.818-9.349,20.72H36.6c-6.135-4.415-10.919-11.559-14.849-20.72-3.676-8.544-6.611-18.835-9.227-30.305a82.317,82.317,0,0,1-2.177-20.273c.316-13.911,8.6-26.229,20.956-32.614,19.754-10.2,3.982-23.929,16.215-41.572C61.426,44.064,97.589,42.5,114.662,51.6s24.184,37.84,8.822,63.73" transform="translate(-5.46 -24.468)" fill="#e6eeff"/>
          <path id="Path_8241" data-name="Path 8241" d="M261.4,259.958c.023,1.828-2.978,4.008-6.694,6.414-.1.068-.208.137-.315.2-2.189,1.413-4.6,2.9-6.775,4.449l-.3.214c-.847.61-1.653,1.231-2.393,1.854-.072.062-.14.123-.211.185-2.225,1.919-3.784,3.9-3.875,5.914-.172,3.871-3.748,8-7.872,7.213-.078-.016-.159-.032-.24-.055-3.94-.932-8.321-6.411-10.7-20.884l-.2-.549c-.029-.084-.062-.179-.094-.282-.656-1.891-2.293-6.772-3.735-12.248-.036-.136-.071-.276-.107-.416a91.676,91.676,0,0,1-2.063-9.8q-.019-.146-.039-.292c-.7-5.106-.507-9.331,1.656-10.471a5.911,5.911,0,0,1,1.007-.419,2.375,2.375,0,0,1,.24-.065c2.916-.741,5.125,1.6,7.3,3.962.026.026.049.049.071.075.072.074.14.149.211.224,1.926,2.079,3.855,4.066,6.249,3.849,1.549-.139,2.822-2.7,4.027-6.3l.078-.244c1.591-4.836,3.063-11.465,4.882-16.727.029-.075.055-.153.081-.228,1.673-4.768,3.641-8.357,6.258-8.37.084,0,.166,0,.25.01h.013c5.242.448,6.3,9.263,5.732,19.779-.006.1-.009.2-.016.293-.3,5.378-1.023,11.182-1.819,16.531-.055.374-.1.734-.146,1.085-.013.1-.026.208-.036.309a17.206,17.206,0,0,0,.312,6.717c.026.081.052.162.074.24,1.91,5.762,8.087,3.813,9.114,7.408a1.571,1.571,0,0,1,.039.179,1.254,1.254,0,0,1,.023.244" transform="translate(-113.914 -109.541)" fill="#e6eeff"/>
          <path id="Path_8242" data-name="Path 8242" d="M247.946,262.527a11.017,11.017,0,0,0,7.168,3.845c-.1.068-.208.137-.315.2a11.182,11.182,0,0,1-7.094-3.959c-1.682.611-3.306,1.27-4.8,1.926-.013.026-.023.042-.023.046l-.042-.02c-4.612,2.02-8.022,3.963-8.312,4.128-.373,3.138-.63,6.177-.8,8.9a32.033,32.033,0,0,1,3.329-2.29c.591-.922,3.653-5.034,10.971-4.284l-.3.214c-6.175-.536-9.169,2.468-10.166,3.78,2.351-1.338,5.447-2.5,7.772-1.926-.072.062-.14.123-.211.185-2.381-.584-5.521.822-7.905,2.238-.033.052-.052.088-.055.091l-.052-.029a32.478,32.478,0,0,0-3.4,2.348c-.218,3.566-.3,6.564-.331,8.48-.078-.017-.159-.033-.24-.055.042-2.771.195-7.733.708-13.408l-.071.036c-.033-.055-3.151-5.648-11.527-8.061-.029-.085-.062-.179-.094-.283a23.094,23.094,0,0,1,6.411,2.881c-1.062-6.577-7.359-12.7-10.146-15.129-.036-.136-.071-.276-.107-.416,2.676,2.293,9.535,8.773,10.533,15.729a17.635,17.635,0,0,1,5.028,4.966,111.847,111.847,0,0,1,2.615-16.444l-.013.02a78.243,78.243,0,0,1-7.175-6.886l-.049.01s-.007-.036-.013-.078a64.356,64.356,0,0,1-4.667-5.664l.01.123c-.013,0-.3.02-.767.02a17.623,17.623,0,0,1-7.564-1.6q-.019-.146-.039-.293a17.761,17.761,0,0,0,8.279,1.634c-2.826-3.914-5.158-8.3-5.616-12.524a2.256,2.256,0,0,1,.24-.065c.666,6.31,5.593,13.024,10.049,17.928-.358-2.111-1.783-10.471-2.744-13.966.026.026.049.049.071.075.072.074.14.149.211.224,1.033,3.764,2.556,12.745,2.764,14a78.849,78.849,0,0,0,7.084,6.8c.419-1.64.886-3.222,1.413-4.71.9-2.553,1.887-5.128,2.842-7.616q.565-1.476,1.13-2.965c-.036-3.657-3.121-6.557-4.956-7.963l.078-.244c1.77,1.341,4.765,4.1,5.093,7.639a102.592,102.592,0,0,0,5.414-18.308c-.139-.491-1.627-5.369-5.625-6.057.029-.075.055-.153.081-.228,3.534.627,5.154,4.4,5.635,5.768a55.772,55.772,0,0,0,.623-14.138c.084,0,.166,0,.25.01a61.6,61.6,0,0,1-2.8,23.3,38.055,38.055,0,0,0,8.545-3.521c-.006.1-.009.2-.016.293a38.934,38.934,0,0,1-8.61,3.5c-1.033,3.41-2.235,6.723-3.469,9.987,0,.026,0,.049,0,.075h-.033q-.556,1.471-1.117,2.936c-.542,1.413-1.091,2.855-1.634,4.307,1.221-.042,8.581-.429,12.894-3.193-.013.1-.026.208-.036.309-4.53,2.79-12.1,3.1-12.949,3.131-.38,1.016-.757,2.04-1.114,3.056a83.027,83.027,0,0,0-3.621,17.038c.767-.435,3.966-2.205,8.162-4.04.556-1.12,4.775-9.305,9.835-12.468.026.081.052.163.074.24-4.693,2.972-8.655,10.315-9.558,12.075,5.664-2.455,13.04-4.956,18.711-4.489a1.257,1.257,0,0,1,.023.244c-4.144-.354-9.221.906-13.862,2.569" transform="translate(-114.319 -109.541)" fill="#f4f4f4"/>
          <path id="Path_8243" data-name="Path 8243" d="M240.681,281.074a5.358,5.358,0,0,0-3.506-2.907c.6,2.509,3.506,2.907,3.506,2.907m2.075-3.708a6.231,6.231,0,0,0-4.268-4.643c-.036,3.856,4.268,4.643,4.268,4.643m-8.992-3.545a4.4,4.4,0,0,0-1.679,4.131c2.475-1.142,1.679-4.131,1.679-4.131m2.815,3.562c-2.3,1.164-2.011,4.086-2.011,4.086a5.358,5.358,0,0,0,2.011-4.086m-7.333-4.906a3.1,3.1,0,0,0-.276,3.125c1.43-1.279.276-3.125.276-3.125m16.15.5a6.231,6.231,0,0,0-3.353-5.342c-.737,3.785,3.353,5.342,3.353,5.342m10.557-15.212c-1.163,1.526.319,3.121.319,3.121a3.1,3.1,0,0,0-.319-3.121M226.108,275.34a4.405,4.405,0,0,0-4.4.74c2.271,1.507,4.4-.74,4.4-.74M253.3,257.968c-1.319,2.216.492,4.528.492,4.528a5.358,5.358,0,0,0-.492-4.528m8.277,1.108a4.406,4.406,0,0,0-4.117,1.712c2.553.957,4.117-1.712,4.117-1.712m-11.435,7.773a6.231,6.231,0,0,0-3.353-5.342c-.737,3.785,3.353,5.342,3.353,5.342m2.067-2.37a5.359,5.359,0,0,0-2.474-3.824c-.183,2.573,2.474,3.824,2.474,3.824m-4.095,4.264a5.357,5.357,0,0,0-3.506-2.907c.6,2.509,3.506,2.907,3.506,2.907m-12.7,15c1.918.016,2.307-2.127,2.307-2.127a3.1,3.1,0,0,0-2.307,2.127M247.3,275.03c2.057,3.262,6.1,1.594,6.1,1.594a6.23,6.23,0,0,0-6.1-1.594m-1.88,4.349c1.747,2.094,4.426.546,4.426.546a4.407,4.407,0,0,0-4.426-.546m-4.645,8.036c2.778,2.675,6.307.087,6.307.087a6.231,6.231,0,0,0-6.307-.087m9.146-16.611c2.057,3.262,6.1,1.594,6.1,1.594a6.232,6.232,0,0,0-6.1-1.594m2.964-3.195c1.723,1.92,4.469.879,4.469.879a5.358,5.358,0,0,0-4.469-.879m5.176-4.821c1.6,1.059,3.094-.524,3.094-.524a3.1,3.1,0,0,0-3.094.524m-29.43,15.395a4.406,4.406,0,0,0-4.1,1.762c2.564.926,4.1-1.762,4.1-1.762m26.864-13.5c.509,1.85,2.676,1.638,2.676,1.638a3.1,3.1,0,0,0-2.676-1.638m-27.106,20.933c2.564.926,4.1-1.762,4.1-1.762a4.406,4.406,0,0,0-4.1,1.762m.37,2.411c2.1,1.734,4.45-.283,4.45-.283a4.405,4.405,0,0,0-4.45.283m1.854-7.355a3.1,3.1,0,0,0-3.038.787c1.684.918,3.038-.787,3.038-.787m16.444,3.615a5.358,5.358,0,0,0-4.469-.879c1.723,1.92,4.469.879,4.469.879m9.6-21.942-.244-.291c-10.5,8.772-16.574,21.452-19.823,30.545q-.629,1.762-1.155,3.429a41.822,41.822,0,0,0-.53-7.954c-1.132-6.6-3.949-10.94-8.148-12.56l-.136.354c9.488,3.66,8.468,20.221,8.364,21.616a91.244,91.244,0,0,0-2.976,12.922l.376.049a90.842,90.842,0,0,1,2.957-12.843h.013s0-.024.005-.061c.462-1.532.988-3.149,1.587-4.825,3.233-9.049,9.277-21.665,19.709-30.381M227.8,289.994c1.688,3.467,5.891,2.251,5.891,2.251a6.231,6.231,0,0,0-5.891-2.251" transform="translate(-117.233 -136.295)" fill="#b1c9ff"/>
          <path id="Path_8244" data-name="Path 8244" d="M153.2,64.965H94.744c-3.429,0-6.234,2.471-6.234,5.49V176.9c0,3.722,3.426,6.74,7.653,6.74h55.608c4.212,0,7.658-3.035,7.658-6.744V70.451c0-3.03-2.789-5.486-6.229-5.486" transform="translate(-46.801 -18.271)" fill="#4878e5"/>
        </g>
      </g>
      <g id="Group_19508" data-name="Group 19508" transform="translate(44.304 50.613)">
        <g id="Group_19507" data-name="Group 19507" clip-path="url(#clip-path-2)">
          <rect id="Rectangle_1860" data-name="Rectangle 1860" width="65.725" height="111.152" transform="translate(0 0)" fill="#b1c9ff"/>
        </g>
      </g>
      <g id="Group_19512" data-name="Group 19512">
        <g id="Group_19511" data-name="Group 19511" clip-path="url(#clip-path)">
          <rect id="Rectangle_1862" data-name="Rectangle 1862" width="95.788" height="42.366" rx="8.652" transform="translate(61.161 71.942)" fill="#fff"/>
          <path id="Path_8248" data-name="Path 8248" d="M220.44,152.551a3.135,3.135,0,0,1,3.135,3.135V189.9a3.135,3.135,0,0,1-3.135,3.135H132.807a3.135,3.135,0,0,1-3.135-3.135V155.686a3.135,3.135,0,0,1,3.135-3.135Zm0-1.885H132.807a5.025,5.025,0,0,0-5.02,5.02V189.9a5.025,5.025,0,0,0,5.02,5.02H220.44a5.025,5.025,0,0,0,5.02-5.02V155.686a5.025,5.025,0,0,0-5.02-5.02" transform="translate(-67.569 -79.667)" fill="#2b58bc"/>
          <rect id="Rectangle_1863" data-name="Rectangle 1863" width="11.237" height="13.336" transform="translate(67.072 86.457)" fill="#fff"/>
          <rect id="Rectangle_1864" data-name="Rectangle 1864" width="11.237" height="13.336" transform="translate(67.072 86.457)" fill="none" stroke="#b1c9ff" stroke-linecap="round" stroke-linejoin="round" stroke-width="1"/>
          <rect id="Rectangle_1865" data-name="Rectangle 1865" width="11.237" height="13.336" transform="translate(81.618 86.457)" fill="#fff"/>
          <rect id="Rectangle_1866" data-name="Rectangle 1866" width="11.237" height="13.336" transform="translate(81.618 86.457)" fill="none" stroke="#b1c9ff" stroke-linecap="round" stroke-linejoin="round" stroke-width="1"/>
          <rect id="Rectangle_1867" data-name="Rectangle 1867" width="11.237" height="13.336" transform="translate(96.163 86.457)" fill="#fff"/>
          <rect id="Rectangle_1868" data-name="Rectangle 1868" width="11.237" height="13.336" transform="translate(96.163 86.457)" fill="none" stroke="#b1c9ff" stroke-linecap="round" stroke-linejoin="round" stroke-width="1"/>
          <rect id="Rectangle_1869" data-name="Rectangle 1869" width="11.237" height="13.336" transform="translate(110.709 86.457)" fill="#fff"/>
          <rect id="Rectangle_1870" data-name="Rectangle 1870" width="11.237" height="13.336" transform="translate(110.709 86.457)" fill="none" stroke="#b1c9ff" stroke-linecap="round" stroke-linejoin="round" stroke-width="1"/>
          <rect id="Rectangle_1871" data-name="Rectangle 1871" width="11.237" height="13.336" transform="translate(125.255 86.457)" fill="#fff"/>
          <rect id="Rectangle_1872" data-name="Rectangle 1872" width="11.237" height="13.336" transform="translate(125.255 86.457)" fill="none" stroke="#b1c9ff" stroke-linecap="round" stroke-linejoin="round" stroke-width="1"/>
          <rect id="Rectangle_1873" data-name="Rectangle 1873" width="11.237" height="13.336" transform="translate(139.8 86.457)" fill="#fff"/>
          <rect id="Rectangle_1874" data-name="Rectangle 1874" width="11.237" height="13.336" transform="translate(139.8 86.457)" fill="none" stroke="#b1c9ff" stroke-linecap="round" stroke-linejoin="round" stroke-width="1"/>
          <path id="Path_8249" data-name="Path 8249" d="M151.418,193.766l1.91-1.378.563,1.018-2.175.908,2.191.892-.6,1.049-1.894-1.377.25,2.363h-1.174l.235-2.363-1.894,1.393-.611-1.065,2.177-.908-2.177-.877.58-1.048,1.941,1.393-.251-2.38h1.19Z" transform="translate(-78.376 -101.198)" fill="#6a85c1"/>
          <path id="Path_8250" data-name="Path 8250" d="M182.285,193.766l1.91-1.378.563,1.018-2.175.908,2.191.892-.6,1.049-1.894-1.377.25,2.363h-1.174l.235-2.363-1.894,1.393-.611-1.065,2.177-.908-2.177-.877.58-1.048,1.941,1.393-.251-2.38h1.19Z" transform="translate(-94.697 -101.198)" fill="#6a85c1"/>
          <line id="Line_3" data-name="Line 3" x2="2.721" transform="translate(100.421 93.125)" fill="none" stroke="#b1c9ff" stroke-linecap="round" stroke-linejoin="round" stroke-width="1"/>
          <line id="Line_4" data-name="Line 4" x2="2.721" transform="translate(114.966 93.125)" fill="none" stroke="#b1c9ff" stroke-linecap="round" stroke-linejoin="round" stroke-width="1"/>
          <line id="Line_5" data-name="Line 5" x2="2.721" transform="translate(129.512 93.125)" fill="none" stroke="#b1c9ff" stroke-linecap="round" stroke-linejoin="round" stroke-width="1"/>
          <line id="Line_6" data-name="Line 6" x2="2.721" transform="translate(144.058 93.125)" fill="none" stroke="#b1c9ff" stroke-linecap="round" stroke-linejoin="round" stroke-width="1"/>
          <path id="Path_8251" data-name="Path 8251" d="M41.564,278.444s-15.492.941-15.87-.659,2.236-8.49,4.6-14.558.377-11.854-1.984-16.3-2.4-8.756.432-11.366,12.7-2.393,12.7-2.393,10.013-.565,12.847,2.046,2.645,7.268.283,11.713-4.345,10.231-1.983,16.3,4.975,12.959,4.6,14.558-15.87.659-15.87.659Z" transform="translate(-13.567 -123.264)" fill="#f2bc97"/>
          <path id="Path_8252" data-name="Path 8252" d="M81.168,235.818a2.76,2.76,0,0,1,2.248,1.709c1.751,4.1,7.391,17.927,4.419,19.275-3.494,1.584-7.757-10.941-8.524-14.7-.639-3.133-.57-6.474,1.857-6.283" transform="translate(-41.756 -124.688)" fill="#f2bc97"/>
          <path id="Path_8253" data-name="Path 8253" d="M90.8,268.356s1.011,2.79.837,3.941-4.325,11.614-4.325,11.614l-3.488-1.244s2.941-9.743,2.918-10.01-.826-2.441-.826-2.441Z" transform="translate(-44.321 -141.897)" fill="#f2bc97"/>
          <path id="Path_8254" data-name="Path 8254" d="M19.4,268.356s-1.011,2.79-.837,3.941,4.325,11.614,4.325,11.614l3.488-1.244s-2.941-9.743-2.918-10.01.826-2.441.826-2.441Z" transform="translate(-9.805 -141.897)" fill="#f2bc97"/>
          <path id="Path_8255" data-name="Path 8255" d="M22.163,272.271a2.723,2.723,0,0,1,1.939,1.823c1.451,4.155,6.5,19.006,5.1,20.3-1.63,1.5-9.545-19.4-9.265-20.644a1.834,1.834,0,0,1,2.221-1.474" transform="translate(-10.541 -143.942)" fill="#f2bc97"/>
          <path id="Path_8256" data-name="Path 8256" d="M43.372,209.593s5.615,2.595,13.981,0c0,0,2.13-7.463.813-12.575s-5.306-5.267-7.01-4.647c0,0-4.725-.813-6.661,1.549-1.853,2.261-3.8,7.231-1.123,15.674" transform="translate(-22.24 -101.584)" fill="#0f3163"/>
          <rect id="Rectangle_1875" data-name="Rectangle 1875" width="6.04" height="6.323" transform="translate(25.029 106.217)" fill="#f2bc97"/>
          <path id="Path_8257" data-name="Path 8257" d="M58.768,204.921c0,4.235-2.482,7.668-5.543,7.668s-5.543-3.433-5.543-7.668,2.482-7.667,5.543-7.667,5.543,3.433,5.543,7.667" transform="translate(-25.213 -104.301)" fill="#f2bc97"/>
        </g>
      </g>
      <g id="Group_19514" data-name="Group 19514" transform="translate(9.023 109.578)">
        <g id="Group_19513" data-name="Group 19513" clip-path="url(#clip-path-4)">
          <rect id="Rectangle_1877" data-name="Rectangle 1877" width="42.916" height="47.186" transform="translate(-2.37 0)" fill="#5187fd"/>
        </g>
      </g>
      <g id="Group_19516" data-name="Group 19516">
        <g id="Group_19515" data-name="Group 19515" clip-path="url(#clip-path)">
          <path id="Path_8259" data-name="Path 8259" d="M30.6,312.016c-1.606,1.08.571,3.64,1.346,4.486,1.262,1.377,3.78,2.032,4.335,1.541s-2.5-3.456-2.472-3.674,1.66,1.081,2.133.566-1.458-2.511-2.535-3a2.465,2.465,0,0,0-2.808.084" transform="translate(-15.873 -164.729)" fill="#f2bc97"/>
          <path id="Path_8260" data-name="Path 8260" d="M86.147,272.271a2.723,2.723,0,0,0-1.939,1.823c-1.451,4.155-6.5,19.006-5.1,20.3,1.63,1.5,9.545-19.4,9.265-20.644a1.834,1.834,0,0,0-2.221-1.474" transform="translate(-41.698 -143.942)" fill="#f2bc97"/>
          <path id="Path_8261" data-name="Path 8261" d="M57.633,296.527l.034.1a122.049,122.049,0,0,0-16.28,8.251,164.15,164.15,0,0,0-16.264-7.638l.034-.715V285.339H57.633v11.188Z" transform="translate(-13.284 -150.877)" fill="#f8fafb"/>
          <path id="Path_8262" data-name="Path 8262" d="M40.6,325.634S4.356,322.423.685,314.532c-2.7-5.815,3.028-10.461,9.635-8.167s30.373,13.947,30.373,13.947Z" transform="translate(0 -161.679)" fill="#0f3163"/>
          <path id="Path_8263" data-name="Path 8263" d="M91.077,337.572v4.7s6.2.411,6.6-.282.88-3.2-.694-4.4-5.413-1.259-5.906-.016" transform="translate(-48.158 -178.016)" fill="#0f3163"/>
          <path id="Path_8264" data-name="Path 8264" d="M85.911,336.633l2.432.895v4.679l-2.523-.252Z" transform="translate(-45.378 -178)" fill="#dec6a0"/>
          <path id="Path_8265" data-name="Path 8265" d="M31.247,325.634s36.245-3.211,39.916-11.1c2.7-5.815-3.028-10.461-9.635-8.167s-30.373,13.947-30.373,13.947Z" transform="translate(-16.474 -161.679)" fill="#253e8e"/>
          <path id="Path_8266" data-name="Path 8266" d="M28.615,336.633l-2.432.895v4.679l2.523-.252Z" transform="translate(-13.845 -178)" fill="#dec6a0"/>
          <path id="Path_8267" data-name="Path 8267" d="M18.432,337.572v4.7s-6.2.411-6.6-.282-.88-3.2.694-4.4,5.413-1.259,5.906-.016" transform="translate(-6.047 -178.016)" fill="#253e8e"/>
          <path id="Path_8268" data-name="Path 8268" d="M44.671,203.3s5.087.356,8.337-1.867a5.909,5.909,0,0,0,1.368-2.166,3.481,3.481,0,0,0,.755,1.8,7.726,7.726,0,0,1-.233-1.995s.93,2.73,1.588,2.788,2.672,0,2.672,0l-2.792-6.246-8.9-.933Z" transform="translate(-23.62 -102.94)" fill="#0f3163"/>
          <path id="Path_8269" data-name="Path 8269" d="M29.949,110.853h-9v-4.729a4.5,4.5,0,0,1,9,0Zm-7.5-1.5h6v-3.228a3,3,0,0,0-6,0Z" transform="translate(-11.075 -53.735)" fill="#b1c9ff"/>
          <path id="Path_8270" data-name="Path 8270" d="M29,113.837h-11.6a.7.7,0,0,0-.7.7v9.1a.7.7,0,0,0,.7.7H29a.705.705,0,0,0,.7-.7v-9.1a.705.705,0,0,0-.7-.7M22.673,119v-.778a.53.53,0,0,1,1.061,0V119a1.073,1.073,0,1,1-1.061,0" transform="translate(-8.832 -60.193)" fill="#b1c9ff"/>
          <rect id="Rectangle_1878" data-name="Rectangle 1878" width="21.527" height="21.526" transform="translate(3.61 45.255)" fill="none" stroke="#dae3ef" stroke-width="1"/>
          <path id="Path_8271" data-name="Path 8271" d="M188.134,17.735h-7.327V13.886a3.663,3.663,0,0,1,7.327,0Zm-6.106-1.221h4.884V13.886a2.442,2.442,0,1,0-4.884,0Z" transform="translate(-95.604 -5.406)" fill="#b1c9ff"/>
          <path id="Path_8272" data-name="Path 8272" d="M187.364,20.163h-9.438a.572.572,0,0,0-.573.573v7.4a.572.572,0,0,0,.573.573h9.438a.574.574,0,0,0,.573-.573v-7.4a.574.574,0,0,0-.573-.573m-5.152,4.2v-.632a.432.432,0,0,1,.863,0v.632a.873.873,0,1,1-.863,0" transform="translate(-93.778 -10.661)" fill="#b1c9ff"/>
          <rect id="Rectangle_1879" data-name="Rectangle 1879" width="17.519" height="17.519" transform="translate(80.108 2.674)" fill="none" stroke="#e6eeff" stroke-width="1"/>
        </g>
      </g>
      <g id="Group_19518" data-name="Group 19518" transform="translate(117.845 36.135)">
        <g id="Group_19517" data-name="Group 19517" clip-path="url(#clip-path-6)">
          <rect id="Rectangle_1881" data-name="Rectangle 1881" width="25.451" height="28.957" transform="translate(0)" fill="#1d63ff"/>
        </g>
      </g>
      <g id="Group_19523" data-name="Group 19523">
        <g id="Group_19522" data-name="Group 19522" clip-path="url(#clip-path)">
          <path id="Path_8274" data-name="Path 8274" d="M262.269,76.621l12.252,4.319s-.142,18.652-12.252,23.668h0a.123.123,0,0,0-.033-.017c-12.076-5.034-12.214-23.652-12.214-23.652l12.214-4.307Zm.008-1-.307.1-.038.013L249.7,80.051l-.634.224.005.672a41.225,41.225,0,0,0,1.616,10.2c2.094,7.168,5.938,12.109,11.116,14.293l.174.115h.471l.177-.072c5.225-2.164,9.1-7.117,11.211-14.321a41.254,41.254,0,0,0,1.622-10.21l.005-.672-.634-.224-12.252-4.319Z" transform="translate(-131.699 -39.987)" fill="#dae3ef"/>
          <path id="Path_8275" data-name="Path 8275" d="M270.626,104.588l-4.5-3.742a.854.854,0,0,1,1.091-1.314l3.324,2.761,5.953-5.787a.854.854,0,1,1,1.191,1.225Z" transform="translate(-140.553 -50.901)" fill="#fefefe"/>
          <g id="Group_19521" data-name="Group 19521" transform="translate(118.318 36.646)" opacity="0.5" style="mix-blend-mode: multiply;isolation: isolate">
            <g id="Group_19520" data-name="Group 19520">
              <g id="Group_19519" data-name="Group 19519" clip-path="url(#clip-path-8)">
                <path id="Path_8276" data-name="Path 8276" d="M263.295,77.765v27.958c-12.076-5.033-12.214-23.651-12.214-23.651Z" transform="translate(-251.081 -77.765)" fill="#d1d3d4"/>
              </g>
            </g>
          </g>
          <rect id="Rectangle_1883" data-name="Rectangle 1883" width="149.316" height="20.72" transform="translate(0.936 164.416)" fill="#f9fbfc"/>
        </g>
      </g>
      <g id="Group_19525" data-name="Group 19525" transform="translate(14.646 0)">
        <g id="Group_19524" data-name="Group 19524" transform="translate(0 0)" clip-path="url(#clip-path-9)">
          <rect id="Rectangle_1885" data-name="Rectangle 1885" width="43.28" height="31.008" transform="translate(0 0)" fill="#1d63ff"/>
        </g>
      </g>
      <g id="Group_19530" data-name="Group 19530">
        <g id="Group_19529" data-name="Group 19529" clip-path="url(#clip-path)">
          <g id="Group_19528" data-name="Group 19528" transform="translate(18.774 10.916)" opacity="0.5" style="mix-blend-mode: multiply;isolation: isolate">
            <g id="Group_19527" data-name="Group 19527">
              <g id="Group_19526" data-name="Group 19526" clip-path="url(#clip-path-11)">
                <path id="Path_8277" data-name="Path 8277" d="M56.447,23.165,39.84,43.13l39.312-6.908Z" transform="translate(-39.841 -23.165)" fill="#d1d3d4"/>
              </g>
            </g>
          </g>
        </g>
      </g>
      <g id="Group_19532" data-name="Group 19532" transform="translate(14.646)">
        <g id="Group_19531" data-name="Group 19531" clip-path="url(#clip-path-12)">
          <rect id="Rectangle_1889" data-name="Rectangle 1889" width="38.963" height="20.12" fill="#5a8dff"/>
        </g>
      </g>
    </g>
  </g>
</svg>
