<svg xmlns="http://www.w3.org/2000/svg" width="16.455" height="18.117" viewBox="0 0 16.455 18.117">
  <path id="Union_18" data-name="Union 18" d="M11267.413,9768.118a2.414,2.414,0,0,1-2.412-2.412v-5.815a2.414,2.414,0,0,1,2.412-2.413h.911V9754.9a4.9,4.9,0,0,1,9.808,0v2.573h.912a2.415,2.415,0,0,1,2.412,2.413v5.815a2.415,2.415,0,0,1-2.412,2.412Zm-.912-8.228v5.815a.913.913,0,0,0,.912.911h11.631a.912.912,0,0,0,.911-.911v-5.815a.911.911,0,0,0-.911-.912h-11.631A.912.912,0,0,0,11266.5,9759.891Zm10.131-2.413V9754.9a3.4,3.4,0,0,0-6.81,0v2.573Z" transform="translate(-11265.001 -9750.001)" fill="#193674"/>
</svg>
