<svg xmlns="http://www.w3.org/2000/svg" width="16.543" height="16.791" viewBox="0 0 16.543 16.791">
  <g id="reset-password-1" transform="translate(-39.082 -32)">
    <path id="Path_11485" data-name="Path 11485" d="M291.646,284.431a1.281,1.281,0,0,1-1.3-1.228v-3.325a1.31,1.31,0,0,1,1.31-1.311h.759a.01.01,0,0,0,.01-.01v-1.231a1.748,1.748,0,1,1,3.5,0v1.232a.01.01,0,0,0,.01.01h.687a1.31,1.31,0,0,1,1.311,1.31v3.315a1.238,1.238,0,0,1-1.238,1.238Zm.01-5.069a.516.516,0,0,0-.516.516v3.315a.516.516,0,0,0,.516.516h4.89a.516.516,0,0,0,.516-.516v-3.315a.516.516,0,0,0-.516-.516Zm3.389-.8a.01.01,0,0,0,.01-.01v-1.231a.831.831,0,0,0-.953-.953c-.578,0-.881.3-.881.953v1.232a.01.01,0,0,0,.01.01Zm.01,0" transform="translate(-246.87 -239.318)" fill="#293e6f"/>
    <path id="Path_11486" data-name="Path 11486" d="M289.949,277.809H284.9a1.4,1.4,0,0,1-1.42-1.348v-3.325a1.432,1.432,0,0,1,1.43-1.431h.65v-1.121a1.868,1.868,0,1,1,3.735,0V271.7h.577a1.432,1.432,0,0,1,1.431,1.431v3.315A1.359,1.359,0,0,1,289.949,277.809Zm-5.035-5.864a1.191,1.191,0,0,0-1.19,1.19v3.326a1.161,1.161,0,0,0,1.18,1.108h5.045a1.119,1.119,0,0,0,1.119-1.118v-3.315a1.191,1.191,0,0,0-1.191-1.191h-.687a.13.13,0,0,1-.13-.13v-1.231a1.628,1.628,0,1,0-3.255,0v1.232a.13.13,0,0,1-.13.129Zm4.89,5.142h-4.89a.636.636,0,0,1-.636-.636v-3.315a.636.636,0,0,1,.636-.636h4.89a.636.636,0,0,1,.636.636v3.315A.636.636,0,0,1,289.8,277.087Zm-4.89-4.347a.4.4,0,0,0-.4.4v3.315a.4.4,0,0,0,.4.4h4.89a.4.4,0,0,0,.4-.4v-3.315a.4.4,0,0,0-.4-.4Zm3.388-.8h-1.814a.13.13,0,0,1-.13-.13v-1.231c0-.7.346-1.073,1-1.073a.951.951,0,0,1,1.073,1.073v1.232A.13.13,0,0,1,288.3,271.945Zm-1.7-.24h1.594v-1.121c0-.584-.249-.833-.833-.833-.519,0-.761.264-.761.833Z" transform="translate(-240.128 -232.576)" fill="#293e6f"/>
    <path id="Path_11487" data-name="Path 11487" d="M54.04,55.413a8.11,8.11,0,1,1,0-16.22,8.253,8.253,0,0,1,5.093,1.791.018.018,0,0,0,.028-.018l-.321-1.523a.018.018,0,0,1,0,0,.5.5,0,0,1,.081-.327l0,0q.123-.246.247-.246h.082c.165,0,.414.165.414.331l.579,2.977a.018.018,0,0,1,0,0v.081a.379.379,0,0,1-.331.414l-2.977.579h-.084c-.165,0-.414-.166-.414-.331a.5.5,0,0,1,.083-.331c.083-.083.165-.165.248-.165l2.117-.408a.018.018,0,0,0,.009-.031,6.585,6.585,0,1,0,2.284,4.129c-.014-.09-.042-.21-.06-.3a.917.917,0,0,1-.022-.192.216.216,0,0,1,.024-.076.426.426,0,0,1,.365-.222h.083c.248,0,.394.18.5.493v0a5.664,5.664,0,0,1,.165,1.488,8.191,8.191,0,0,1-8.193,8.11Zm0,0" transform="translate(-6.729 -6.742)" fill="#293e6f"/>
    <path id="Path_11488" data-name="Path 11488" d="M47.312,48.791a8.23,8.23,0,0,1,0-16.46,8.1,8.1,0,0,1,2.74.475,8.832,8.832,0,0,1,2.208,1.178L52,32.726a.137.137,0,0,1,0-.028.62.62,0,0,1,.1-.4c.044-.087.159-.3.346-.3h.082c.207,0,.523.195.534.438l.576,2.968a.14.14,0,0,1,0,.026v.081a.5.5,0,0,1-.438.534l-2.967.576-.026,0h-.081c-.211,0-.534-.2-.534-.451a.6.6,0,0,1,.118-.416.533.533,0,0,1,.32-.2l1.908-.366a6.488,6.488,0,1,0,2.4,4.193c-.01-.061-.027-.141-.042-.212l-.018-.084a.9.9,0,0,1-.023-.178l0-.03a.266.266,0,0,1,.038-.138.559.559,0,0,1,.459-.287h.1c.423,0,.564.434.61.576l0,.005a5.912,5.912,0,0,1,.17,1.523,8.112,8.112,0,0,1-2.408,5.771,8.379,8.379,0,0,1-2.661,1.8,8.245,8.245,0,0,1-3.244.66Zm0-16.22A7.99,7.99,0,1,0,50.46,47.909a8.14,8.14,0,0,0,2.587-1.746,7.875,7.875,0,0,0,2.338-5.6,5.589,5.589,0,0,0-.157-1.445l0-.015c-.117-.356-.258-.4-.38-.4h-.076a.317.317,0,0,0-.265.157.243.243,0,0,0-.011.026V38.9a.68.68,0,0,0,.018.144l.017.082c.016.073.033.156.044.224a7.246,7.246,0,0,1,.061,1.156,7.388,7.388,0,0,1-4.791,6.922A7.319,7.319,0,1,1,52.25,35.153a.138.138,0,0,1-.068.237l-2.128.408h-.012c-.033,0-.118.085-.163.13s-.048.192-.048.246c0,.083.178.211.294.211H50.2l2.979-.579h.012c.1,0,.211-.118.211-.294V35.44l-.58-2.978v-.012c0-.083-.178-.211-.294-.211h-.083s-.053.008-.14.18l0,.008-.012.017-.008.008a.417.417,0,0,0-.048.233l.318,1.512a.138.138,0,0,1-.219.138,8.7,8.7,0,0,0-2.361-1.305,7.86,7.86,0,0,0-2.657-.46ZM55.221,39.094ZM55.456,39.048Zm-.006-.019v0ZM50.187,36.388Z" fill="#293e6f"/>
  </g>
</svg>
