<svg xmlns="http://www.w3.org/2000/svg" width="45.964" height="45.965" viewBox="0 0 45.964 45.965">
  <g id="key-6281" transform="translate(-0.001 1.058)">
    <path id="Path_11342" data-name="Path 11342" d="M41.4,3.511A15.644,15.644,0,0,0,17.592,5.529,15.262,15.262,0,0,0,14.886,12.3,15.634,15.634,0,0,0,17,22.67L.424,39.243a1.441,1.441,0,0,0,0,2.038l3.2,3.2a1.441,1.441,0,0,0,2.038,0l2.814-2.814,2.635,2.635a1.441,1.441,0,0,0,2.038,0l3.2-3.2a1.441,1.441,0,0,0,0-2.038l-2.635-2.635,8.517-8.517A15.624,15.624,0,0,0,41.4,3.511ZM36.155,20.362a8.205,8.205,0,1,1,0-11.61A8.155,8.155,0,0,1,36.155,20.362Z" transform="translate(0 0)" fill="#1d63ff"/>
  </g>
</svg>
