<svg xmlns="http://www.w3.org/2000/svg" width="14.844" height="14.844" viewBox="0 0 14.844 14.844">
  <path id="Subtraction_8" data-name="Subtraction 8" d="M-215.848,4.844a.663.663,0,0,1-.471-.21l-2.288-2.288a6.971,6.971,0,0,1-4.424,1.586,6.921,6.921,0,0,1-4.928-2.041A6.919,6.919,0,0,1-230-3.034a6.921,6.921,0,0,1,2.041-4.926A6.918,6.918,0,0,1-223.034-10a6.921,6.921,0,0,1,4.926,2.041,6.95,6.95,0,0,1,2.033,4.6,6.941,6.941,0,0,1-1.579,4.752l2.288,2.288a.635.635,0,0,1,.16.716A.721.721,0,0,1-215.848,4.844Zm-7.185-13.5a5.583,5.583,0,0,0-3.973,1.645,5.624,5.624,0,0,0,0,7.945,5.582,5.582,0,0,0,3.973,1.646A5.582,5.582,0,0,0-219.061.939a5.626,5.626,0,0,0,0-7.945A5.583,5.583,0,0,0-223.034-8.651Z" transform="translate(230 10)" fill="#3e527e"/>
</svg>
