<svg xmlns="http://www.w3.org/2000/svg" width="69.207" height="53.058" viewBox="0 0 69.207 53.058">
  <g id="support-svgrepo-com" transform="translate(0 -59.733)">
    <g id="Group_59817" data-name="Group 59817" transform="translate(0 59.733)">
      <path id="Path_11496" data-name="Path 11496" d="M61.1,81.693c-.668-12.208-12.3-21.96-26.5-21.96s-25.829,9.752-26.5,21.96C3.48,82.029,0,84.42,0,87.416v4.614C0,95.264,4.053,97.8,9.228,97.8a1.152,1.152,0,0,0,1.153-1.153V82.8c0-11.448,10.867-20.762,24.222-20.762S58.826,71.354,58.826,82.8V96.166L56.041,98.95H53.654a24.856,24.856,0,0,0,1.712-9.1c0-12.65-9.314-22.941-20.762-22.941S13.841,77.2,13.841,89.85s9.314,22.941,20.762,22.941c7.689,0,14.4-4.653,17.988-11.534h3.927a1.148,1.148,0,0,0,.815-.338l3.13-3.13c4.94-.152,8.742-2.626,8.742-5.759V87.416C69.207,84.42,65.727,82.029,61.1,81.693ZM51.141,98.951H40.371a3.465,3.465,0,0,0-3.46-3.46H32.3a3.465,3.465,0,0,0-3.46,3.46v2.307a3.465,3.465,0,0,0,3.46,3.46H36.91a3.465,3.465,0,0,0,3.46-3.46h9.6c-3.31,5.555-8.96,9.226-15.366,9.226-10.176,0-18.455-9.255-18.455-20.634S24.428,69.218,34.6,69.218s18.455,9.255,18.455,20.634A22.465,22.465,0,0,1,51.141,98.951Z" transform="translate(0 -59.733)" fill="#1d63ff"/>
    </g>
  </g>
</svg>
