<svg xmlns="http://www.w3.org/2000/svg" width="75.532" height="53.059" viewBox="0 0 75.532 53.059">
  <g id="layer1" transform="translate(-7.046 -14.471)">
    <path id="rect1805" d="M18.316,14.471a3.882,3.882,0,0,0-3.872,3.872V44.071a3.882,3.882,0,0,0,3.872,3.872h45.4a3.882,3.882,0,0,0,3.872-3.872V18.343a3.882,3.882,0,0,0-3.872-3.872Zm0,1.691h45.4A2.159,2.159,0,0,1,65.9,18.343V44.071a2.159,2.159,0,0,1-2.181,2.181h-45.4a2.159,2.159,0,0,1-2.181-2.181V18.343a2.159,2.159,0,0,1,2.181-2.181Z" transform="translate(3.798)" fill="#1d63ff"/>
    <path id="path1807" d="M20.171,35.529l-.228.248s-3.79,4.17-7.212,8.353a66.973,66.973,0,0,0-4.357,5.8A8.149,8.149,0,0,0,7.319,52.02a1.414,1.414,0,0,0,.027,1.04,1.232,1.232,0,0,0,1.052.63H81.042a.978.978,0,0,0,.748-.42.886.886,0,0,0,.115-.627,2.26,2.26,0,0,0-.272-.763,18.588,18.588,0,0,0-1.221-1.975c-1.082-1.587-2.647-3.671-4.259-5.758-3.225-4.173-6.633-8.342-6.633-8.342l-.228-.278Zm.677,1.513H68.571c.216.265,3.285,4.02,6.385,8.031,1.6,2.075,3.16,4.149,4.206,5.684.412.6.662,1.032.881,1.419H8.9a7.8,7.8,0,0,1,.748-1.437A66.5,66.5,0,0,1,13.9,45.089c3.286-4.016,6.73-7.808,6.946-8.046Z" transform="translate(0.095 10.812)" fill="#1d63ff"/>
    <path id="path1809" d="M24,44.529v1.513H48.217V44.529Z" transform="translate(8.706 15.433)" fill="#1d63ff"/>
    <path id="path1811" d="M17,38.529v1.513h3.027V38.529Z" transform="translate(5.112 12.352)" fill="#1d63ff"/>
    <path id="path1813" d="M21,38.529v1.513h3.027V38.529Z" transform="translate(7.165 12.352)" fill="#1d63ff"/>
    <path id="path1815" d="M25,38.529v1.513h3.027V38.529Z" transform="translate(9.219 12.352)" fill="#1d63ff"/>
    <path id="path1818" d="M29,38.529v1.513h3.027V38.529Z" transform="translate(11.273 12.352)" fill="#1d63ff"/>
    <path id="path1820" d="M33,38.529v1.513h3.027V38.529Z" transform="translate(13.326 12.352)" fill="#1d63ff"/>
    <path id="path1822" d="M37,38.529v1.513h3.027V38.529Z" transform="translate(15.38 12.352)" fill="#1d63ff"/>
    <path id="path1824" d="M41,38.529v1.513h3.027V38.529Z" transform="translate(17.434 12.352)" fill="#1d63ff"/>
    <path id="path1826" d="M45,38.529v1.513h3.027V38.529Z" transform="translate(19.488 12.352)" fill="#1d63ff"/>
    <path id="path1828" d="M17,40.529v1.513h3.027V40.529Z" transform="translate(5.112 13.379)" fill="#1d63ff"/>
    <path id="path1830" d="M21,40.529v1.513h3.027V40.529Z" transform="translate(7.165 13.379)" fill="#1d63ff"/>
    <path id="path1832" d="M25,40.529v1.513h3.027V40.529Z" transform="translate(9.219 13.379)" fill="#1d63ff"/>
    <path id="path1834" d="M29,40.529v1.513h3.027V40.529Z" transform="translate(11.273 13.379)" fill="#1d63ff"/>
    <path id="path1836" d="M33,40.529v1.513h3.027V40.529Z" transform="translate(13.326 13.379)" fill="#1d63ff"/>
    <path id="path1838" d="M37,40.529v1.513h3.027V40.529Z" transform="translate(15.38 13.379)" fill="#1d63ff"/>
    <path id="path1840" d="M41,40.529v1.513h3.027V40.529Z" transform="translate(17.434 13.379)" fill="#1d63ff"/>
    <path id="path1842" d="M45,40.529v1.513h3.027V40.529Z" transform="translate(19.488 13.379)" fill="#1d63ff"/>
    <path id="path1844" d="M17,42.529v1.513h3.027V42.529Z" transform="translate(5.112 14.406)" fill="#1d63ff"/>
    <path id="path1846" d="M21,42.529v1.513h3.027V42.529Z" transform="translate(7.165 14.406)" fill="#1d63ff"/>
    <path id="path1848" d="M25,42.529v1.513h3.027V42.529Z" transform="translate(9.219 14.406)" fill="#1d63ff"/>
    <path id="path1850" d="M29,42.529v1.513h3.027V42.529Z" transform="translate(11.273 14.406)" fill="#1d63ff"/>
    <path id="path1852" d="M33,42.529v1.513h3.027V42.529Z" transform="translate(13.326 14.406)" fill="#1d63ff"/>
    <path id="path1854" d="M37,42.529v1.513h3.027V42.529Z" transform="translate(15.38 14.406)" fill="#1d63ff"/>
    <path id="path1856" d="M41,42.529v1.513h3.027V42.529Z" transform="translate(17.434 14.406)" fill="#1d63ff"/>
    <path id="path1858" d="M45,42.529v1.513h3.027V42.529Z" transform="translate(19.488 14.406)" fill="#1d63ff"/>
    <path id="rect1860" d="M20.286,16.529A3.792,3.792,0,0,0,16.5,20.313V39.987a3.792,3.792,0,0,0,3.784,3.784H59.635a3.792,3.792,0,0,0,3.784-3.784V20.313a3.792,3.792,0,0,0-3.784-3.784Zm0,1.513H59.635a2.249,2.249,0,0,1,2.27,2.27V39.987a2.249,2.249,0,0,1-2.27,2.27H20.286a2.249,2.249,0,0,1-2.27-2.27V20.313a2.249,2.249,0,0,1,2.27-2.27Z" transform="translate(4.855 1.057)" fill="#1d63ff"/>
    <path id="path1862" d="M8.493,46.529a1.788,1.788,0,0,0-.733.13,1.2,1.2,0,0,0-.6.588,1.521,1.521,0,0,0,.05,1.224,7.238,7.238,0,0,1,.529,1.842v.757H81.894v-.757a3.038,3.038,0,0,1,.168-.644c.11-.308.256-.66.367-1.029a1.891,1.891,0,0,0,.062-1.271,1.257,1.257,0,0,0-.553-.656,1.612,1.612,0,0,0-.8-.183v1.428a.456.456,0,0,1-.077-.092c-.034-.1,0,.078-.08.34s-.216.6-.343.955c-.043.122-.05.27-.089.4H9.051c-.144-.591-.3-1.246-.408-1.564-.079-.236-.015-.334-.095-.148-.012.027-.035.034-.056.059Z" transform="translate(0 16.46)" fill="#1d63ff"/>
    <path id="path1864" d="M27,47.529v1.513H40.623V47.529Z" transform="translate(10.246 16.973)" fill="#1d63ff"/>
    <path id="rect1866" d="M17.991,27.529v4.534a3.8,3.8,0,0,0,3.789,3.789h4.537V34.346H21.781a2.259,2.259,0,0,1-2.27-2.282V27.53Z" transform="translate(5.62 6.705)" fill="#1d63ff"/>
    <path id="path1876" d="M48.835,26.374V21.839a3.8,3.8,0,0,0-3.789-3.789H40.508v1.508h4.537a2.259,2.259,0,0,1,2.27,2.282v4.534Z" transform="translate(17.18 1.838)" fill="#1d63ff"/>
  </g>
</svg>
