<svg id="Group_59793" data-name="Group 59793" xmlns="http://www.w3.org/2000/svg" xmlns:xlink="http://www.w3.org/1999/xlink" width="28.957" height="22.145" viewBox="0 0 28.957 22.145">
  <defs>
    <clipPath id="clip-path">
      <rect id="Rectangle_7377" data-name="Rectangle 7377" width="28.957" height="22.145" fill="none"/>
    </clipPath>
    <clipPath id="clip-path-2">
      <rect id="Rectangle_7371" data-name="Rectangle 7371" width="1.693" height="2.75" fill="none"/>
    </clipPath>
    <clipPath id="clip-path-3">
      <rect id="Rectangle_7372" data-name="Rectangle 7372" width="1.135" height="1.135" fill="none"/>
    </clipPath>
    <clipPath id="clip-path-6">
      <rect id="Rectangle_7375" data-name="Rectangle 7375" width="21.164" height="16.964" fill="none"/>
    </clipPath>
    <clipPath id="clip-path-7">
      <rect id="Rectangle_7376" data-name="Rectangle 7376" width="7.646" height="2.286" fill="none"/>
    </clipPath>
  </defs>
  <g id="Group_59797" data-name="Group 59797">
    <g id="Group_59791" data-name="Group 59791">
      <g id="Group_59790" data-name="Group 59790" clip-path="url(#clip-path)">
        <path id="Path_11440" data-name="Path 11440" d="M65.515,48.3c.363.628-.1,1.575-1.039,2.116s-1.989.47-2.352-.158.1-1.575,1.039-2.116,1.99-.47,2.352.158" transform="translate(-57.771 -44.523)" fill="#142a5a"/>
        <path id="Path_11441" data-name="Path 11441" d="M52.242,23.763c-.142-.168-.5-.8-1.6-2.762l.754-.569c.86.862,1.968,2,2.15,2.164.031.029-1.3,1.167-1.3,1.167" transform="translate(-47.186 -19.038)" fill="#142a5a"/>
        <path id="Path_11442" data-name="Path 11442" d="M34.588,1.586A1.375,1.375,0,1,1,33.213.211a1.375,1.375,0,0,1,1.375,1.375" transform="translate(-29.666 -0.197)" fill="#c7d8ea"/>
        <g id="Group_59774" data-name="Group 59774" transform="translate(3.228 0.014)" opacity="0.46" style="mix-blend-mode: multiply;isolation: isolate">
          <g id="Group_59773" data-name="Group 59773">
            <g id="Group_59772" data-name="Group 59772" clip-path="url(#clip-path-2)">
              <path id="Path_11443" data-name="Path 11443" d="M47.642.211a1.379,1.379,0,0,0-.318.037,1.375,1.375,0,0,1,0,2.676A1.375,1.375,0,1,0,47.642.211" transform="translate(-47.324 -0.211)" fill="#a3b6bf"/>
            </g>
          </g>
        </g>
        <path id="Path_11444" data-name="Path 11444" d="M47.324,2.726A1.366,1.366,0,0,0,48.472.338,1.4,1.4,0,0,0,47.324.051a1.384,1.384,0,1,1,0,2.676" transform="translate(-44.096 0.001)" fill="#043340"/>
        <g id="Group_59777" data-name="Group 59777" transform="translate(2.412 0.713)" opacity="0.46" style="mix-blend-mode: screen;isolation: isolate">
          <g id="Group_59776" data-name="Group 59776">
            <g id="Group_59775" data-name="Group 59775" clip-path="url(#clip-path-3)">
              <path id="Path_11445" data-name="Path 11445" d="M36.487,11.023a.568.568,0,1,1-.568-.567.568.568,0,0,1,.568.567" transform="translate(-35.352 -10.456)" fill="#c7d8ea"/>
            </g>
          </g>
        </g>
        <path id="Path_11446" data-name="Path 11446" d="M312.425,50.873c-.363.628.1,1.576,1.039,2.116s1.989.47,2.352-.158-.1-1.575-1.039-2.116-1.989-.47-2.352.158" transform="translate(-290.996 -46.917)" fill="#142a5a"/>
        <path id="Path_11447" data-name="Path 11447" d="M336.168,26.333c.142-.168.5-.8,1.6-2.762L337.016,23c-.913.916-2.059,2.073-2.117,2.107-.006,0,1.27,1.224,1.27,1.224" transform="translate(-312.052 -21.433)" fill="#142a5a"/>
        <path id="Path_11448" data-name="Path 11448" d="M355.474,4.155a1.375,1.375,0,1,0,1.375-1.375,1.375,1.375,0,0,0-1.375,1.375" transform="translate(-331.223 -2.59)" fill="#c7d8ea"/>
        <g id="Group_59780" data-name="Group 59780" transform="translate(24.251 0.19)" opacity="0.46" style="mix-blend-mode: multiply;isolation: isolate">
          <g id="Group_59779" data-name="Group 59779">
            <g id="Group_59778" data-name="Group 59778" clip-path="url(#clip-path-2)">
              <path id="Path_11449" data-name="Path 11449" d="M356.849,2.78a1.383,1.383,0,0,1,.318.037,1.375,1.375,0,0,0,0,2.676,1.375,1.375,0,1,1-.318-2.713" transform="translate(-355.474 -2.78)" fill="#a3b6bf"/>
            </g>
          </g>
        </g>
        <path id="Path_11450" data-name="Path 11450" d="M356.537,5.3a1.366,1.366,0,0,1-1.148-2.388,1.4,1.4,0,0,1,1.148-.288,1.384,1.384,0,1,0,0,2.676" transform="translate(-330.593 -2.393)" fill="#043340"/>
        <g id="Group_59783" data-name="Group 59783" transform="translate(25.625 0.889)" opacity="0.46" style="mix-blend-mode: screen;isolation: isolate">
          <g id="Group_59782" data-name="Group 59782">
            <g id="Group_59781" data-name="Group 59781" clip-path="url(#clip-path-3)">
              <path id="Path_11451" data-name="Path 11451" d="M375.627,13.593a.568.568,0,1,0,.568-.568.568.568,0,0,0-.568.568" transform="translate(-375.627 -13.025)" fill="#c7d8ea"/>
            </g>
          </g>
        </g>
        <path id="Path_11452" data-name="Path 11452" d="M0,100.092c0,3.591,6.482,6.5,14.479,6.5s14.479-2.911,14.479-6.5-6.482-6.5-14.479-6.5S0,96.5,0,100.092" transform="translate(0 -87.205)" fill="#142a5a"/>
        <path id="Path_11453" data-name="Path 11453" d="M388.107,152.035a8.645,8.645,0,0,1-.848.627,18.637,18.637,0,0,0,1-6.6,6.06,6.06,0,0,1,.634.651,19.558,19.558,0,0,1-.782,5.323" transform="translate(-360.84 -136.097)" fill="#a2bfdc"/>
        <path id="Path_11454" data-name="Path 11454" d="M13.368,146.622a6.1,6.1,0,0,1,.637-.653,16.916,16.916,0,0,0,1.12,6.691,9.019,9.019,0,0,1-.884-.633,17.79,17.79,0,0,1-.872-5.406" transform="translate(-12.456 -136.011)" fill="#a2bfdc"/>
        <path id="Path_11455" data-name="Path 11455" d="M45.716,64.838a34.618,34.618,0,0,1,8.106-.167c6.218.6,8.431-8.71,7.545-13.4-.452-2.39-3.116-4.1-5.365-4.635a29.029,29.029,0,0,0-12.529-.165,7.263,7.263,0,0,0-5.23,4.1c-1.788,4.478,1.4,15.1,7.473,14.261" transform="translate(-35.172 -42.74)" fill="#a2bfdc"/>
        <g id="Group_59786" data-name="Group 59786" transform="translate(2.575 5.181)" opacity="0.46" style="mix-blend-mode: multiply;isolation: isolate">
          <g id="Group_59785" data-name="Group 59785">
            <g id="Group_59784" data-name="Group 59784" clip-path="url(#clip-path-6)">
              <path id="Path_11456" data-name="Path 11456" d="M38.242,78.6a6.349,6.349,0,0,1,2.08-2.656,5.794,5.794,0,0,0-.751,1.327c-1.788,4.478,1.4,15.1,7.473,14.261a34.618,34.618,0,0,1,8.106-.167,5.235,5.235,0,0,0,3.761-1.05,5.564,5.564,0,0,1-5.09,2.379,34.611,34.611,0,0,0-8.106.167c-6.074.843-9.262-9.782-7.473-14.261" transform="translate(-37.747 -75.945)" fill="#a3b6bf"/>
            </g>
          </g>
        </g>
        <path id="Path_11457" data-name="Path 11457" d="M76.33,106.167a71.231,71.231,0,0,0-11.039,0c-5.892.458-7.92,10.2,2.736,11.656,3.381.463,7.44.221,10.4-1.615,4.639-2.874,2.985-9.646-2.1-10.041" transform="translate(-56.327 -98.724)" fill="#c7d8ea"/>
        <path id="Path_11458" data-name="Path 11458" d="M73.176,120.062a21.664,21.664,0,0,1-2.93-.2c-5.6-.767-7.511-3.791-7.435-6.365a5.1,5.1,0,0,1,4.69-4.971c1.824-.142,3.677-.214,5.507-.214h0c1.83,0,3.683.072,5.507.214a5,5,0,0,1,4.529,3.866,5.364,5.364,0,0,1-2.5,5.878,14.307,14.307,0,0,1-7.366,1.794Z" transform="translate(-58.524 -100.921)" fill="#2951ac"/>
        <g id="Group_59789" data-name="Group 59789" transform="translate(15.504 4.099)" opacity="0.34" style="mix-blend-mode: screen;isolation: isolate">
          <g id="Group_59788" data-name="Group 59788">
            <g id="Group_59787" data-name="Group 59787" clip-path="url(#clip-path-7)">
              <path id="Path_11459" data-name="Path 11459" d="M227.271,61.07c.063.558,1.75.826,3.738,1.083,1.99.239,3.691.394,3.889-.131s-1.384-1.587-3.64-1.864-4.056.368-3.987.913" transform="translate(-227.269 -60.088)" fill="#a2bfdc"/>
            </g>
          </g>
        </g>
        <path id="Path_11460" data-name="Path 11460" d="M206.423,140.966a.579.579,0,1,1-.579-.579.579.579,0,0,1,.579.579" transform="translate(-191.262 -130.81)" fill="lime"/>
        <path id="Path_11461" data-name="Path 11461" d="M186.793,145.86a.544.544,0,1,1-.544-.544.544.544,0,0,1,.544.544" transform="translate(-173.035 -135.402)" fill="lime"/>
        <path id="Path_11462" data-name="Path 11462" d="M171.371,158.279a.51.51,0,1,1-.51-.51.51.51,0,0,1,.51.51" transform="translate(-158.73 -147.006)" fill="lime"/>
        <path id="Path_11463" data-name="Path 11463" d="M162.147,176.232a.475.475,0,1,1-.475-.475.475.475,0,0,1,.475.475" transform="translate(-150.199 -163.767)" fill="lime"/>
        <path id="Path_11464" data-name="Path 11464" d="M161.085,197.486a.441.441,0,1,1-.441-.441.441.441,0,0,1,.441.441" transform="translate(-149.274 -183.602)" fill="lime"/>
        <path id="Path_11465" data-name="Path 11465" d="M168.675,216.841a.406.406,0,1,1-.406-.406.406.406,0,0,1,.406.406" transform="translate(-156.41 -201.67)" fill="lime"/>
        <path id="Path_11466" data-name="Path 11466" d="M183.125,231.326a.372.372,0,1,1-.372-.372.372.372,0,0,1,.372.372" transform="translate(-169.939 -215.198)" fill="lime"/>
        <path id="Path_11467" data-name="Path 11467" d="M202.446,238.949a.337.337,0,1,1-.337-.337.337.337,0,0,1,.337.337" transform="translate(-188.006 -222.334)" fill="lime"/>
        <path id="Path_11468" data-name="Path 11468" d="M223.664,237.921a.3.3,0,1,1-.3-.3.3.3,0,0,1,.3.3" transform="translate(-207.841 -221.408)" fill="lime"/>
        <path id="Path_11469" data-name="Path 11469" d="M241.584,228.732a.268.268,0,1,1-.268-.268.268.268,0,0,1,.268.268" transform="translate(-224.603 -212.878)" fill="lime"/>
        <path id="Path_11470" data-name="Path 11470" d="M253.967,213.346a.234.234,0,1,1-.234-.234.234.234,0,0,1,.234.234" transform="translate(-236.205 -198.573)" fill="lime"/>
        <path id="Path_11471" data-name="Path 11471" d="M258.829,193.748a.2.2,0,1,1-.2-.2.2.2,0,0,1,.2.2" transform="translate(-240.8 -180.345)" fill="lime"/>
      </g>
    </g>
  </g>
</svg>
