<svg id="Group_58373" data-name="Group 58373" xmlns="http://www.w3.org/2000/svg" width="12.263" height="10.219" viewBox="0 0 12.263 10.219">
  <path id="Path_11126" data-name="Path 11126" d="M10.73,13.219h-9.2A1.535,1.535,0,0,1,0,11.686V6.066A1.535,1.535,0,0,1,1.533,4.533H3.3l.87-1.305A.511.511,0,0,1,4.6,3H7.665a.511.511,0,0,1,.425.228l.87,1.305h1.77a1.535,1.535,0,0,1,1.533,1.533v5.621A1.535,1.535,0,0,1,10.73,13.219Zm-9.2-7.665a.512.512,0,0,0-.511.511v5.621a.512.512,0,0,0,.511.511h9.2a.512.512,0,0,0,.511-.511V6.066a.512.512,0,0,0-.511-.511H8.686a.511.511,0,0,1-.425-.228l-.87-1.305H4.872L4,5.327a.511.511,0,0,1-.425.228Z" transform="translate(0 -3)" fill="#fff"/>
  <path id="Path_11127" data-name="Path 11127" d="M13.055,12A2.555,2.555,0,1,1,10.5,14.555,2.558,2.558,0,0,1,13.055,12Zm0,4.088a1.533,1.533,0,1,0-1.533-1.533A1.535,1.535,0,0,0,13.055,16.088Z" transform="translate(-6.923 -8.934)" fill="#fff"/>
</svg>
