<svg xmlns="http://www.w3.org/2000/svg" width="17.07" height="18.966" viewBox="0 0 17.07 18.966">
  <g id="Icon_feather-user" data-name="Icon feather-user" transform="translate(-4.5 -3)">
    <path id="Path_8238" data-name="Path 8238" d="M20.621,28.586a.948.948,0,0,1-.948-.948v-1.9A2.848,2.848,0,0,0,16.828,22.9H9.242A2.845,2.845,0,0,0,6.4,25.742v1.9a.948.948,0,1,1-1.9,0v-1.9A4.742,4.742,0,0,1,9.242,21h7.586a4.747,4.747,0,0,1,4.742,4.742v1.9A.948.948,0,0,1,20.621,28.586Z" transform="translate(0 -6.62)" fill="#193674"/>
    <path id="Path_8239" data-name="Path 8239" d="M15.242,3A4.742,4.742,0,1,1,10.5,7.742,4.747,4.747,0,0,1,15.242,3Zm0,7.586A2.845,2.845,0,1,0,12.4,7.742,2.848,2.848,0,0,0,15.242,10.586Z" transform="translate(-2.207)" fill="#193674"/>
  </g>
</svg>
