<svg id="user" xmlns="http://www.w3.org/2000/svg" width="56.301" height="62.897" viewBox="0 0 56.301 62.897">
  <g id="Group_58551" data-name="Group 58551" transform="translate(0)">
    <g id="Group_58550" data-name="Group 58550">
      <path id="Path_11229" data-name="Path 11229" d="M127.122,32.661a16.331,16.331,0,1,0-16.33-16.331A16.374,16.374,0,0,0,127.122,32.661Z" transform="translate(-98.968)" fill="#dee8ff"/>
      <path id="Path_11230" data-name="Path 11230" d="M80.345,259.723a15.225,15.225,0,0,0-1.64-3,20.3,20.3,0,0,0-14.048-8.843,3.006,3.006,0,0,0-2.068.5,17.407,17.407,0,0,1-20.538,0,2.676,2.676,0,0,0-2.068-.5,20.151,20.151,0,0,0-14.048,8.843,17.552,17.552,0,0,0-1.64,3,1.516,1.516,0,0,0,.071,1.355,28.443,28.443,0,0,0,1.925,2.853,27.1,27.1,0,0,0,3.28,3.708,42.755,42.755,0,0,0,3.28,2.853,32.52,32.52,0,0,0,38.794,0,31.358,31.358,0,0,0,3.28-2.853,32.923,32.923,0,0,0,3.28-3.708,24.994,24.994,0,0,0,1.925-2.853A1.217,1.217,0,0,0,80.345,259.723Z" transform="translate(-24.165 -214.011)" fill="#dee8ff"/>
    </g>
  </g>
</svg>
