<svg id="user" xmlns="http://www.w3.org/2000/svg" width="19.594" height="21.889" viewBox="0 0 19.594 21.889">
  <g id="Group_58551" data-name="Group 58551" transform="translate(0)">
    <g id="Group_58550" data-name="Group 58550">
      <path id="Path_11229" data-name="Path 11229" d="M116.475,11.367a5.683,5.683,0,1,0-5.683-5.683A5.7,5.7,0,0,0,116.475,11.367Z" transform="translate(-106.677)" fill="#bed1f8"/>
      <path id="Path_11230" data-name="Path 11230" d="M43.717,251.976a5.3,5.3,0,0,0-.571-1.042,7.064,7.064,0,0,0-4.889-3.077,1.046,1.046,0,0,0-.72.174,6.058,6.058,0,0,1-7.148,0,.931.931,0,0,0-.72-.174,7.013,7.013,0,0,0-4.889,3.077,6.109,6.109,0,0,0-.571,1.042.528.528,0,0,0,.025.472,9.9,9.9,0,0,0,.67.993,9.433,9.433,0,0,0,1.142,1.29,14.885,14.885,0,0,0,1.142.993,11.318,11.318,0,0,0,13.5,0,10.912,10.912,0,0,0,1.142-.993,11.461,11.461,0,0,0,1.142-1.29,8.7,8.7,0,0,0,.67-.993A.423.423,0,0,0,43.717,251.976Z" transform="translate(-24.165 -236.067)" fill="#bed1f8"/>
    </g>
  </g>
</svg>
