<svg xmlns="http://www.w3.org/2000/svg" width="19.285" height="12.292" viewBox="0 0 19.285 12.292">
  <g id="view" transform="translate(0 -92.835)">
    <g id="Group_58560" data-name="Group 58560" transform="translate(0 92.835)">
      <g id="Group_58559" data-name="Group 58559" transform="translate(0 0)">
        <path id="Path_11233" data-name="Path 11233" d="M19.163,98.606c-.172-.236-4.277-5.771-9.52-5.771S.294,98.37.122,98.606a.636.636,0,0,0,0,.75c.172.236,4.277,5.771,9.52,5.771s9.348-5.535,9.52-5.771A.636.636,0,0,0,19.163,98.606Zm-9.52,5.249c-3.862,0-7.207-3.674-8.2-4.875.989-1.2,4.327-4.874,8.2-4.874s7.206,3.673,8.2,4.875C16.85,100.183,13.513,103.855,9.642,103.855Z" transform="translate(0 -92.835)" fill="#5870a5"/>
      </g>
    </g>
    <g id="Group_58562" data-name="Group 58562" transform="translate(5.828 95.166)">
      <g id="Group_58561" data-name="Group 58561" transform="translate(0 0)">
        <path id="Path_11234" data-name="Path 11234" d="M158.537,154.725a3.815,3.815,0,1,0,3.815,3.815A3.819,3.819,0,0,0,158.537,154.725Zm0,6.358a2.543,2.543,0,1,1,2.543-2.543A2.546,2.546,0,0,1,158.537,161.083Z" transform="translate(-154.722 -154.725)" fill="#5870a5"/>
      </g>
    </g>
  </g>
</svg>
